<svg role="img" viewBox="0 0 24 24" xmlns="http://www.w3.org/2000/svg">
  <title>Canva</title>
  <path d="M11.966 23.37c-3.6 0-6.195-1.428-6.195-1.428s-1.803-5.264 4.887-10.43c-3.14 2.822-4.103 5.48-1.554 6.822 2.723 1.433 6.918-2.673 8.358-6.79.006-.016.012-.033.018-.05.698-1.996.953-3.61.57-4.805-.623-1.944-2.73-2.618-4.996-1.577-1.41.648-2.656 1.76-3.666 3.193.308-1.83.21-3.69-.607-4.93C7.57 1.536 5.373 1.43 3.6 2.37c-.31.164-.265.517.06.577 1.474.27 2.062 1.39 1.83 3.037-.305 2.16-1.77 5.15-4.432 7.155-.246.185-.295.534.02.68 4.22 1.953 4.314 5.397 2.215 6.946-2.073 1.53-5.064.22-3.23-3.22.18-.336-.13-.7-.473-.553C-2.88 18.23 2.657 24 7.97 24c4.665 0 8.57-4.162 9.68-7.243.03-.08.055-.16.082-.242 1.252-3.642.34-6.315-1.97-7.398-2.67-1.25-6.38 1.152-8.156 5.253.287-.56.6-1.1.93-1.616 1.76-2.753 4.41-3.465 5.48-2.27.42.47.476 1.192.172 2.05-.707 1.996-2.43 5.394-5.694 8.653 1.346-1.076 2.508-2.454 3.473-4.048.012.183.01.37.006.554-.15 4.363-4.634 5.677-4.634 5.677z" fill="#00C4CC"/>
</svg>