<svg xmlns="http://www.w3.org/2000/svg" xmlns:xlink="http://www.w3.org/1999/xlink" width="500" zoomAndPan="magnify" viewBox="0 0 375 374.999991" height="500" preserveAspectRatio="xMidYMid meet" version="1.0"><defs><clipPath id="59f9cfc4b5"><path d="M 55.949219 13.546875 L 319.199219 13.546875 L 319.199219 139.546875 L 55.949219 139.546875 Z M 55.949219 13.546875 " clip-rule="nonzero"/></clipPath><clipPath id="01d04eba54"><path d="M 55 5 L 137 5 L 137 69 L 55 69 Z M 55 5 " clip-rule="nonzero"/></clipPath><clipPath id="191db93c2f"><path d="M 55.945312 6.339844 L 126.40625 -4.242188 L 136.988281 66.21875 L 66.527344 76.800781 Z M 55.945312 6.339844 " clip-rule="nonzero"/></clipPath><clipPath id="416b78d01e"><path d="M 55.945312 6.339844 L 126.40625 -4.242188 L 136.988281 66.21875 L 66.527344 76.800781 Z M 55.945312 6.339844 " clip-rule="nonzero"/></clipPath><clipPath id="b7b6d824cb"><path d="M 240 0 L 320 0 L 320 75 L 240 75 Z M 240 0 " clip-rule="nonzero"/></clipPath><clipPath id="5cae73dc16"><path d="M 248.558594 -4.199219 L 319.324219 4.097656 L 311.023438 74.863281 L 240.257812 66.566406 Z M 248.558594 -4.199219 " clip-rule="nonzero"/></clipPath><clipPath id="37c42b29fd"><path d="M 0.238281 3 L 79.199219 3 L 79.199219 69 L 0.238281 69 Z M 0.238281 3 " clip-rule="nonzero"/></clipPath><clipPath id="44e5d42366"><path d="M 8.558594 -4.199219 L 79.324219 4.097656 L 71.023438 74.863281 L 0.257812 66.566406 Z M 8.558594 -4.199219 " clip-rule="nonzero"/></clipPath><clipPath id="8f3899d930"><path d="M 79.042969 4.066406 L 8.277344 -4.234375 L -0.0195312 66.53125 L 70.746094 74.832031 Z M 79.042969 4.066406 " clip-rule="nonzero"/></clipPath><clipPath id="836be8757c"><rect x="0" width="80" y="0" height="75"/></clipPath><clipPath id="351c317efb"><path d="M 224.820312 160.980469 L 327.570312 160.980469 L 327.570312 367.230469 L 224.820312 367.230469 Z M 224.820312 160.980469 " clip-rule="nonzero"/></clipPath><clipPath id="75a8364be0"><path d="M 47.78125 160.980469 L 150.53125 160.980469 L 150.53125 367.230469 L 47.78125 367.230469 Z M 47.78125 160.980469 " clip-rule="nonzero"/></clipPath><clipPath id="e4208e1cb0"><path d="M 0.78125 0.980469 L 103.167969 0.980469 L 103.167969 207.230469 L 0.78125 207.230469 Z M 0.78125 0.980469 " clip-rule="nonzero"/></clipPath><clipPath id="5913cd01da"><rect x="0" width="104" y="0" height="208"/></clipPath><clipPath id="7c7d69a153"><path d="M 180.253906 161.875 L 197.613281 161.875 L 197.613281 369.890625 L 180.253906 369.890625 Z M 180.253906 161.875 " clip-rule="nonzero"/></clipPath><clipPath id="4fdd8787cd"><path d="M 179.355469 160.980469 L 198.503906 160.980469 L 198.503906 370.789062 L 179.355469 370.789062 Z M 179.355469 160.980469 " clip-rule="nonzero"/></clipPath></defs><g clip-path="url(#59f9cfc4b5)"><path fill="#ffffff" d="M 187.496094 -123.585938 C 199.574219 -123.585938 211.21875 -122.042969 222.441406 -118.960938 C 233.660156 -115.878906 244.148438 -111.46875 253.914062 -105.730469 C 263.675781 -99.992188 272.542969 -93.140625 280.507812 -85.175781 C 288.472656 -77.210938 295.324219 -68.304688 301.0625 -58.453125 C 306.796875 -48.605469 311.210938 -38.113281 314.292969 -26.980469 C 317.375 -15.847656 318.960938 -4.199219 319.046875 7.960938 C 319.046875 20.039062 317.503906 31.6875 314.421875 42.90625 C 311.335938 54.125 306.925781 64.617188 301.1875 74.378906 C 295.449219 84.144531 288.597656 93.007812 280.632812 100.972656 C 272.667969 108.9375 263.761719 115.789062 253.914062 121.527344 C 244.066406 127.265625 233.574219 131.675781 222.441406 134.757812 C 211.304688 137.839844 199.660156 139.425781 187.496094 139.511719 C 175.421875 139.511719 163.773438 137.96875 152.554688 134.886719 C 141.335938 131.804688 130.84375 127.394531 121.082031 121.65625 C 111.316406 115.917969 102.453125 109.066406 94.488281 101.101562 C 86.523438 93.136719 79.671875 84.230469 73.933594 74.378906 C 68.195312 64.53125 63.785156 54.082031 60.703125 43.035156 C 57.617188 31.984375 56.035156 20.296875 55.949219 7.960938 C 55.949219 -4.113281 57.488281 -15.761719 60.574219 -26.980469 C 63.65625 -38.199219 68.066406 -48.691406 73.804688 -58.453125 C 79.542969 -68.21875 86.394531 -77.082031 94.359375 -85.046875 C 102.324219 -93.011719 111.230469 -99.863281 121.082031 -105.601562 C 130.929688 -111.339844 141.378906 -115.75 152.425781 -118.832031 C 163.472656 -121.914062 175.164062 -123.5 187.496094 -123.585938 Z M 187.496094 123.066406 C 198.03125 123.066406 208.179688 121.699219 217.941406 118.957031 C 227.707031 116.214844 236.871094 112.363281 245.433594 107.394531 C 254 102.429688 261.792969 96.390625 268.816406 89.28125 C 275.839844 82.171875 281.832031 74.421875 286.800781 66.027344 C 291.769531 57.636719 295.664062 48.472656 298.492188 38.539062 C 301.316406 28.601562 302.6875 18.410156 302.601562 7.960938 C 302.601562 -2.570312 301.230469 -12.71875 298.492188 -22.484375 C 295.75 -32.246094 291.898438 -41.410156 286.929688 -49.976562 C 281.960938 -58.539062 275.925781 -66.332031 268.816406 -73.355469 C 261.707031 -80.378906 253.957031 -86.375 245.5625 -91.339844 C 237.171875 -96.308594 228.007812 -100.207031 218.070312 -103.03125 C 208.136719 -105.859375 197.945312 -107.226562 187.496094 -107.140625 C 176.960938 -107.140625 166.8125 -105.773438 157.050781 -103.03125 C 147.289062 -100.289062 138.125 -96.4375 129.558594 -91.46875 C 120.996094 -86.503906 113.199219 -80.464844 106.179688 -73.355469 C 99.15625 -66.246094 93.160156 -58.496094 88.191406 -50.105469 C 83.226562 -41.710938 79.328125 -32.546875 76.503906 -22.613281 C 73.675781 -12.675781 72.304688 -2.484375 72.390625 7.960938 C 72.390625 18.496094 73.761719 28.644531 76.503906 38.410156 C 79.242188 48.171875 83.097656 57.335938 88.066406 65.902344 C 93.03125 74.464844 99.070312 82.257812 106.179688 89.28125 C 113.285156 96.304688 121.039062 102.300781 129.429688 107.265625 C 137.824219 112.234375 146.988281 116.132812 156.921875 118.957031 C 166.855469 121.785156 177.046875 123.152344 187.496094 123.066406 Z M 187.496094 123.066406 " fill-opacity="1" fill-rule="nonzero"/></g><g clip-path="url(#01d04eba54)"><g clip-path="url(#191db93c2f)"><g clip-path="url(#416b78d01e)"><path fill="#ffffff" d="M 119.121094 68.617188 L 136.667969 65.980469 C 130.847656 27.21875 94.707031 0.519531 55.945312 6.339844 L 58.582031 23.886719 C 87.605469 19.527344 114.761719 39.59375 119.121094 68.617188 Z M 119.121094 68.617188 " fill-opacity="1" fill-rule="nonzero"/></g></g></g><g clip-path="url(#b7b6d824cb)"><g clip-path="url(#5cae73dc16)"><g transform="matrix(1, 0, 0, 1, 240, 0)"><g clip-path="url(#836be8757c)"><g clip-path="url(#37c42b29fd)"><g clip-path="url(#44e5d42366)"><g clip-path="url(#8f3899d930)"><path fill="#ffffff" d="M 17.914062 68.351562 L 0.292969 66.285156 C 4.855469 27.355469 40.113281 -0.5 79.042969 4.066406 L 76.976562 21.6875 C 47.828125 18.269531 21.332031 39.203125 17.914062 68.351562 Z M 17.914062 68.351562 " fill-opacity="1" fill-rule="nonzero"/></g></g></g></g></g></g></g><g clip-path="url(#351c317efb)"><path fill="#ffffff" d="M 224.457031 367.214844 L 224.457031 347.640625 C 270.523438 347.640625 308 310.164062 308 264.101562 C 308 218.035156 270.523438 180.558594 224.457031 180.558594 L 224.457031 160.988281 C 281.316406 160.988281 327.570312 207.242188 327.570312 264.101562 C 327.570312 320.957031 281.316406 367.214844 224.457031 367.214844 Z M 224.457031 367.214844 " fill-opacity="1" fill-rule="nonzero"/></g><g clip-path="url(#75a8364be0)"><g transform="matrix(1, 0, 0, 1, 47, 160)"><g clip-path="url(#5913cd01da)"><g clip-path="url(#e4208e1cb0)"><path fill="#ffffff" d="M 103.53125 207.214844 L 103.53125 187.640625 C 57.464844 187.640625 19.988281 150.164062 19.988281 104.101562 C 19.988281 58.035156 57.464844 20.558594 103.53125 20.558594 L 103.53125 0.988281 C 46.675781 0.988281 0.417969 47.242188 0.417969 104.101562 C 0.417969 160.957031 46.675781 207.214844 103.53125 207.214844 Z M 103.53125 207.214844 " fill-opacity="1" fill-rule="nonzero"/></g></g></g></g><g clip-path="url(#7c7d69a153)"><path fill="#ffffff" d="M 179.421875 408.195312 L 179.421875 160.976562 L 198.4375 160.976562 L 198.4375 408.195312 Z M 179.421875 408.195312 " fill-opacity="1" fill-rule="nonzero"/></g><g clip-path="url(#4fdd8787cd)"><path stroke-linecap="butt" transform="matrix(0, -0.75, 0.75, 0, 179.354436, 370.791012)" fill="none" stroke-linejoin="miter" d="M 0.00259887 0.0013771 L 0.00259887 25.532629 L 279.747409 25.532629 L 279.747409 0.0013771 L 0.00259887 0.0013771 " stroke="#ffffff" stroke-width="102" stroke-opacity="1" stroke-miterlimit="4"/></g></svg>